<svg width="434.000000" height="143.000000" viewBox="0 0 434 143" fill="none" xmlns="http://www.w3.org/2000/svg" xmlns:xlink="http://www.w3.org/1999/xlink">
	<desc>
			Created with Pixso.
	</desc>
	<defs/>
	<path id="MillerCode Creations" d="M125.28 45C125.28 43.71 125.41 41.48 125.86 38.92L131.69 5.95C132.39 1.92 131.75 0.45 131.75 0.45C131.75 0.45 132.7 -0.13 135.08 -0.13C140 -0.13 140.58 1.73 139.81 6.21L133.53 41.79C132.91 45.57 133.99 47.43 136.3 47.43C138.84 47.43 141.74 45.31 143.39 41.85C144.22 41.85 144.8 42.37 144.61 43.53C143.97 46.92 138.99 53 132.77 53C128.36 53 125.28 50.12 125.28 45ZM147.75 45C147.75 43.71 147.88 41.48 148.33 38.92L154.16 5.95C154.86 1.92 154.22 0.45 154.22 0.45C154.22 0.45 155.18 -0.13 157.55 -0.13C162.47 -0.13 163.05 1.73 162.28 6.21L156 41.79C155.38 45.57 156.46 47.43 158.77 47.43C161.32 47.43 164.21 45.31 165.86 41.85C166.69 41.85 167.27 42.37 167.08 43.53C166.44 46.92 161.46 53 155.24 53C150.83 53 147.75 50.12 147.75 45ZM360.27 43.53C359.63 46.92 355.03 53 348.82 53C344.6 53 341.58 50.37 341.33 45.7C338.64 50.43 335.19 53 331.47 53C326.22 53 322.07 49.48 322.07 41.98C322.07 27.71 330.39 21 337.88 21C340.88 21 343.07 22.09 344.53 23.81L347.6 5.95C348.3 1.92 347.68 0.45 347.68 0.45C347.68 0.45 348.63 -0.13 351 -0.13C355.93 -0.13 356.5 1.73 355.74 6.21L349.58 41.79C348.94 45.64 350.03 47.43 352.35 47.43C354.52 47.43 357.39 45.31 359.07 41.85C359.89 41.85 360.47 42.37 360.27 43.53ZM42.01 45.39C46.16 45.39 48.97 42.7 52.36 30.92L56.4 16.96C58.71 8.84 58.83 5.64 58.83 5.64C58.83 5.64 60.3 5 62.49 5C66.38 5 67.72 6.28 67.93 10.95L69.27 42.37L83.29 13.12C85.33 8.9 85.79 7.1 86.04 5.64C86.04 5.64 87.05 5 89.68 5C94.41 5 95.32 7.1 94.49 11.96L89.24 42.12C88.6 45.82 89.94 47.43 92.11 47.43C95.26 47.43 97.94 43.65 98.83 41.85C99.8 41.85 100.18 42.5 100.05 43.53C99.47 47.43 94.35 53 88.47 53C83.93 53 80.79 49.92 80.79 45.06C80.79 42.12 81.11 39.56 81.68 36.17L84.94 17.54L71.57 45.76C69.91 49.28 69.4 52.04 69.4 52.04C69.4 52.04 67.93 53 65.36 53C61.91 53 61.21 50.5 61.01 46.53L59.72 17.28L53.4 40.78C50.96 49.85 47.83 53 43.6 53C40.72 53 38.86 51.01 38.86 48.07C38.86 45.82 39.77 44.87 39.77 44.87C39.77 44.87 40.47 45.39 42.01 45.39ZM250.82 32.39C250.82 42.25 256.07 47.68 264.65 47.68C271.61 47.68 277.19 45.06 280.13 41.85C281.16 41.85 281.35 42.43 281.22 43.26C280.46 46.59 272.52 53 261.25 53C250.3 53 241.93 45.51 241.93 33.09C241.93 16.26 252.43 5 265.66 5C273.66 5 277.9 10.18 277.9 15.87C277.9 21.89 274.05 25.15 270.08 25.15C266.94 25.15 265.93 22.98 265.93 22.98C265.93 22.98 270.72 21.06 270.72 13.89C270.72 10.5 268.61 8.51 265.47 8.51C258.11 8.51 250.82 19.2 250.82 32.39ZM111.9 15.23C109.6 15.23 108.05 13.64 108.05 11.4C108.05 8.78 110.1 6.79 112.54 6.79C114.98 6.79 116.51 8.51 116.51 10.82C116.51 13.06 114.71 15.23 111.9 15.23ZM103.19 45C103.19 43.71 103.32 41.48 103.77 38.92L105.82 27.07C106.52 22.98 105.88 21.57 105.88 21.57C105.88 21.57 106.85 21 109.21 21C114.13 21 114.71 22.85 113.94 27.34L111.44 41.79C110.82 45.64 111.9 47.43 114.21 47.43C116.38 47.43 119.26 45.31 120.93 41.85C121.76 41.85 122.33 42.37 122.13 43.53C121.51 46.92 116.9 53 110.68 53C106.27 53 103.19 50.12 103.19 45ZM200.57 43.53C199.99 46.34 193.85 53 184.05 53C175.66 53 169.59 47.81 169.59 39.17C169.59 27.84 178.23 21 186.74 21C193.27 21 195.9 24.39 195.9 27.65C195.9 33.48 189.16 37.31 177.91 39.43C178.29 44.23 181.62 47.93 187.05 47.93C193.91 47.93 197.8 44.54 199.54 41.85C200.37 41.85 200.82 42.37 200.57 43.53ZM210.56 21C215.48 21 216.06 23.04 215.29 27.34L214.78 30.15C218.87 23.23 223.17 21 226.04 21C229.18 21 231.17 22.73 231.17 25.98C231.17 29.57 228.98 32.14 225.86 32.14C224.18 32.14 222.97 31.75 222.97 31.75C222.97 31.75 223.81 30.28 223.81 28.54C223.81 27.65 223.42 27.14 222.47 27.14C221.43 27.14 220.03 27.96 217.92 30.92C215.48 34.31 213.37 38.28 211.84 47.29C211.2 51.07 211.84 52.42 211.84 52.42C211.84 52.42 210.87 53 208.51 53C203.57 53 203 51.14 203.78 46.65L207.17 27.07C207.87 23.04 207.23 21.57 207.23 21.57C207.23 21.57 208.18 21 210.56 21ZM283.08 40.78C283.08 29.18 289.86 21 300.82 21C308.3 21 312.58 25.92 312.58 33.21C312.58 34.62 312.46 35.96 312.27 37.25C317.07 36.54 320.02 32.26 320.02 32.26C320.85 32.26 321.28 32.9 321.16 33.85C320.78 36.1 316.75 39.56 311.63 40.2C309.46 47.81 303.57 53 294.86 53C288.08 53 283.08 48.71 283.08 40.78ZM393.76 43.53C393.18 46.34 387.04 53 377.25 53C368.86 53 362.78 47.81 362.78 39.17C362.78 27.84 371.42 21 379.93 21C386.47 21 389.09 24.39 389.09 27.65C389.09 33.48 382.36 37.31 371.11 39.43C371.48 44.23 374.81 47.93 380.25 47.93C387.11 47.93 391 44.54 392.73 41.85C393.56 41.85 394.01 42.37 393.76 43.53ZM303.5 38.46C301.89 37.25 301.07 35.53 301.07 33.42C301.07 31.23 302.22 29.51 304.33 29.06C304.02 25.85 302.53 24.14 300.18 24.14C296.97 24.14 293.64 27.4 291.85 36.93C291.53 38.59 291.27 41.92 291.27 43.53C291.27 47.56 292.82 49.79 295.5 49.79C298.96 49.79 301.83 46.15 303.5 38.46ZM189.04 26.43C189.04 25.09 188.15 24.2 186.8 24.2C183.15 24.2 178.68 28.42 177.98 36.42C185.77 34.56 189.04 30.65 189.04 26.43ZM382.23 26.43C382.23 25.09 381.34 24.2 380 24.2C376.34 24.2 371.87 28.42 371.17 36.42C378.97 34.56 382.23 30.65 382.23 26.43ZM330.25 42.12C330.25 45.7 331.68 47.43 334.03 47.43C338.58 47.43 341.97 37.82 343.19 31.43L343.77 28.42C343.19 27.14 341.97 25.35 339.53 25.35C335.19 25.35 330.25 31.81 330.25 42.12ZM13.22 112.08C13.22 126.87 21.09 135.03 33.96 135.03C44.41 135.03 52.78 131.09 57.19 126.28C58.74 126.28 59.02 127.15 58.83 128.39C57.68 133.39 45.77 143 28.88 143C12.45 143 -0.12 131.77 -0.12 113.14C-0.12 87.89 15.63 71 35.49 71C47.49 71 53.84 78.78 53.84 87.31C53.84 96.33 48.07 101.23 42.12 101.23C37.41 101.23 35.88 97.97 35.88 97.97C35.88 97.97 43.08 95.09 43.08 84.33C43.08 79.25 39.91 76.27 35.2 76.27C24.16 76.27 13.22 92.3 13.22 112.08ZM261.04 86.35C257.59 86.35 255.27 83.96 255.27 80.6C255.27 76.67 258.34 73.69 262 73.69C265.65 73.69 267.95 76.27 267.95 79.74C267.95 83.09 265.26 86.35 261.04 86.35ZM212.45 97.78C212.45 96.14 213.6 95 215.71 95L220.23 95L221.19 89.82C222.34 83.77 221.29 81.57 221.29 81.57C221.29 81.57 222.72 80.7 226.28 80.7C233.66 80.7 234.62 83.46 233.38 90.19L232.51 95L242.03 95C242.03 95 242.69 95.77 242.69 97.01C242.69 98.65 241.54 99.8 239.43 99.8L231.65 99.8L227.05 126.19C226.09 131.46 228.01 134.65 232.51 134.65C238 134.65 241.94 130.32 244.05 126.28C245.29 126.28 246.15 127.15 245.76 128.79C244.33 134.65 236.55 143 227.43 143C220.33 143 214.75 138 214.75 130.32C214.75 128.11 214.96 124.95 215.83 120.05L219.37 99.8L213.13 99.8C213.13 99.8 212.45 99.03 212.45 97.78ZM69.78 95C77.16 95 78.03 98.07 76.88 104.51L76.11 108.73C82.25 98.35 88.69 95 93.01 95C97.72 95 100.69 97.6 100.69 102.47C100.69 107.86 97.41 111.71 92.73 111.71C90.22 111.71 88.39 111.12 88.39 111.12C88.39 111.12 89.66 108.92 89.66 106.32C89.66 104.98 89.07 104.21 87.64 104.21C86.09 104.21 83.98 105.45 80.82 109.88C77.16 114.96 74 120.92 71.7 134.44C70.74 140.11 71.7 142.13 71.7 142.13C71.7 142.13 70.25 143 66.71 143C59.3 143 58.44 140.21 59.61 133.48L64.69 104.11C65.75 98.07 64.79 95.86 64.79 95.86C64.79 95.86 66.22 95 69.78 95ZM153.12 128.79C152.25 133.01 143.04 143 128.35 143C115.76 143 106.64 135.21 106.64 122.25C106.64 105.26 119.61 95 132.38 95C142.17 95 146.11 100.08 146.11 104.98C146.11 113.72 136.01 119.46 119.14 122.65C119.7 129.85 124.69 135.4 132.85 135.4C143.14 135.4 148.97 130.32 151.57 126.28C152.82 126.28 153.5 127.06 153.12 128.79ZM202.47 95.96C202.47 95.96 201.21 97.69 200.25 102.87L196.12 126.19C195.07 131.96 196.8 134.65 200.25 134.65C203.53 134.65 207.84 131.46 210.35 126.28C211.59 126.28 212.46 127.06 212.15 128.79C211.19 133.88 204.28 143 194.97 143C188.64 143 184.21 139.06 183.75 132.14C179.81 139.25 174.53 143 169.05 143C161.17 143 154.94 137.72 154.94 126.47C154.94 105.07 167.43 95 178.66 95C183.46 95 186.82 96.92 189.02 99.71C190.57 96.24 192.96 95 197.67 95C200.93 95 202.47 95.96 202.47 95.96ZM247.98 131C247.98 129.07 248.17 125.72 248.85 121.88L251.92 104.11C252.97 97.97 252.01 95.86 252.01 95.86C252.01 95.86 253.47 95 257.01 95C264.39 95 265.26 97.78 264.11 104.51L260.36 126.19C259.42 131.96 261.04 134.65 264.51 134.65C267.76 134.65 272.07 131.46 274.58 126.28C275.82 126.28 276.69 127.06 276.39 128.79C275.45 133.88 268.54 143 259.21 143C252.6 143 247.98 138.68 247.98 131ZM277.65 124.67C277.65 107.28 287.82 95 304.25 95C315.48 95 321.9 102.38 321.9 113.32C321.9 115.43 321.72 117.45 321.43 119.37C328.63 118.32 333.06 111.89 333.06 111.89C334.3 111.89 334.96 112.85 334.77 114.28C334.21 117.66 328.16 122.84 320.47 123.8C317.22 135.21 308.38 143 295.32 143C285.15 143 277.65 136.57 277.65 124.67ZM363.49 131C363.49 128.51 364.36 123.21 364.92 120.05L366.75 109.48C367.52 104.89 366.56 103.43 364.45 103.43C358.4 103.43 349.28 117.75 346.31 133.88C345.25 139.92 346.21 142.13 346.21 142.13C346.21 142.13 344.76 143 341.22 143C333.82 143 332.95 140.21 334.12 133.48L339.21 104.11C340.26 98.07 339.3 95.86 339.3 95.86C339.3 95.86 340.73 95 344.29 95C351.68 95 352.54 97.78 351.39 104.51L350.62 108.92C354.37 102.68 361.66 95 369.44 95C375.49 95 379.33 98.93 379.33 104.89C379.33 107 378.93 109.78 378.46 112.67L376.17 126.19C375.3 130.9 376.07 134.65 380.11 134.65C384.14 134.65 387.68 131.28 390.18 126.28C391.43 126.28 392.29 127.06 391.99 128.79C391.98 128.87 391.96 128.95 391.95 129.03C392.99 127.02 395.23 125.91 397.68 125.91C400.94 125.91 402.28 127.25 402.28 127.25C402.28 127.25 401.81 128.3 401.81 130.03C401.81 134.75 404.29 138.1 409.78 138.19C415.24 138.19 417.84 135.31 417.84 132.14C417.84 129.85 416.57 127.93 413.13 126.1L403.73 121.1C399.11 118.62 395.36 115.55 395.36 109.1C395.36 101.32 402.09 95 415.73 95C427.61 95 433.19 101.32 433.19 106.32C433.19 109.97 430.21 112.08 426.86 112.08C423.58 112.08 422.24 110.75 422.24 110.75C422.24 110.75 422.74 109.69 422.74 107.96C422.74 103.43 419.95 99.8 414.56 99.8C409.28 99.8 406.71 102.47 406.71 105.85C406.71 108.64 408.23 110.25 411.39 111.89L419.67 116.21C426.67 119.86 429.16 123.8 429.16 128.89C429.16 136.46 422.74 143 408.82 143C396.51 143 391.33 136.67 391.33 131.67C391.33 131.41 391.35 131.15 391.38 130.9C389.33 135.96 382.88 143 375.11 143C367.89 143 363.49 138.19 363.49 131ZM308.29 121.2C305.87 119.37 304.63 116.79 304.63 113.63C304.63 110.35 306.36 107.77 309.53 107.09C309.06 102.28 306.83 99.71 303.29 99.71C298.49 99.71 293.5 104.6 290.8 118.9C290.33 121.39 289.93 126.38 289.93 128.79C289.93 134.84 292.25 138.19 296.29 138.19C301.47 138.19 305.78 132.73 308.29 121.2ZM135.82 103.15C135.82 101.14 134.49 99.8 132.47 99.8C126.99 99.8 120.29 106.13 119.23 118.13C130.92 115.34 135.82 109.48 135.82 103.15ZM167.22 126.68C167.22 132.05 169.35 134.65 172.89 134.65C179.71 134.65 184.8 120.24 186.63 110.65L187.5 106.13C186.63 104.21 184.8 101.53 181.14 101.53C174.63 101.53 167.22 111.21 167.22 126.68Z" fill="#FFFFFF" fill-opacity="1.000000" fill-rule="evenodd"/>
</svg>
