<svg width="32" height="32" fill="none" xmlns="http://www.w3.org/2000/svg"><defs><clipPath id="a"><path fill="#fff" fill-opacity="0" d="M0 0h32v32H0z"/></clipPath></defs><g clip-path="url(#a)"><path d="M0 0h32v32H0z"/><circle cx="16" cy="16" r="12"/><circle cx="16" cy="16" r="12" stroke="#470091" stroke-width="2" stroke-linejoin="round"/><path d="M12.7 15.67v.03c-.39.4-1.02.4-1.41 0a.978.978 0 010-1.41h.03l1.38 1.38zm7.97-1.38h.03c.4.39.4 1.02 0 1.41-.39.4-1.02.4-1.41 0v-.03l1.38-1.38z"/><path d="M12 15l4-4 4 4" stroke="#470091" stroke-width="2" stroke-linejoin="round" stroke-linecap="round"/><path d="M16.98 20.98L17 21c0 .56-.44 1-1 1s-1-.44-1-1l.02-.02h1.96zm-1.96-9.96L15 11c0-.56.44-1 1-1s1 .44 1 1l-.02.02h-1.96z"/><path d="M16 21V11" stroke="#470091" stroke-width="2" stroke-linejoin="round" stroke-linecap="round"/></g></svg>