<svg width="140" height="124" fill="none" xmlns="http://www.w3.org/2000/svg"><defs><clipPath id="b"><path transform="translate(52 36)" fill="#fff" fill-opacity="0" d="M0 0h40.333v44H0z"/></clipPath><clipPath id="a"><path fill="#fff" fill-opacity="0" d="M0 0h139.5v124H0z"/></clipPath></defs><g clip-path="url(#a)" stroke="#000" stroke-width="2" stroke-linejoin="round"><rect x="122.063" y="93" rx="2" width="104.625" height="69.75" transform="rotate(180 122.063 93)"/><path d="M87.18 108.5L52.31 NaN" stroke-linecap="round"/><g clip-path="url(#b)"><ellipse cx="64.604" cy="64.875" rx="5.042" ry="5.5"/><ellipse cx="64.604" cy="47" rx="5.042" ry="5.5"/><ellipse cx="79.729" cy="64.875" rx="5.042" ry="5.5"/><path d="M57.04 74.5c.22-.32.45-.63.7-.92.26-.29.52-.56.8-.81.28-.26.58-.5.88-.72.31-.21.62-.41.95-.59.33-.18.66-.34 1.01-.47.34-.14.69-.25 1.05-.34.35-.1.71-.16 1.08-.21.36-.05.72-.07 1.09-.07.36 0 .73.02 1.09.07.37.05.73.11 1.08.21.36.09.71.2 1.05.34.34.13.68.29 1.01.47.32.18.64.38.95.59.3.22.6.46.88.72.28.25.54.52.8.81.25.29.48.6.7.92.22-.32.46-.63.71-.92.25-.29.52-.56.8-.81a8.636 8.636 0 011.83-1.31c.32-.18.66-.34 1-.47.35-.14.7-.25 1.05-.34.36-.1.72-.16 1.08-.21.36-.05.73-.07 1.09-.07.37 0 .73.02 1.1.07.36.05.72.11 1.08.21.35.09.7.2 1.05.34.34.13.67.29 1 .47a8.636 8.636 0 011.83 1.31c.28.25.55.52.8.81.25.29.49.6.71" stroke-linecap="round"/><ellipse cx="79.729" cy="47" rx="5.042" ry="5.5"/><path d="M57.04 56.62c.22-.32.45-.62.7-.91.26-.29.52-.56.8-.82a9.762 9.762 0 011.83-1.31c.33-.17.66-.33 1.01-.47a9.191 9.191 0 012.13-.55 9.818 9.818 0 012.18 0 9.191 9.191 0 012.13.55c.34.14.68.3 1.01.47a9.762 9.762 0 011.83 1.31c.28.26.54.53.8.82.25.29.48.59.7.91a10.554 10.554 0 011.51-1.73c.28-.26.57-.49.88-.71.3-.22.62-.42.95-.6.32-.17.66-.33 1-.47.35-.13.7-.25 1.05-.34.36-.09.72-.16 1.08-.21a9.953 9.953 0 012.19 0c.36.05.72.12 1.08.21.35.09.7.21 1.05.34.34.14.67.3 1 .47.33.18.65.38.95.6.31.22.6.45.88.71.28.26.55.53.8.82.25.29.49.59.71" stroke-linecap="round"/></g></g></svg>