<svg width="134" height="124" fill="none" xmlns="http://www.w3.org/2000/svg"><defs><clipPath id="a"><path fill="#fff" fill-opacity="0" d="M0 0h134v124H0z"/></clipPath></defs><g clip-path="url(#a)" stroke="#FFF" stroke-linejoin="round"><rect x="117.25" y="93" rx="2" width="100.5" height="69.75" transform="rotate(180 117.25 93)" stroke-width="4"/><path d="M83.75 108.5l-33.5" stroke-width="4" stroke-linecap="round"/><path d="M62.5 69c.42 0 .84-.05 1.26-.13.42-.08.83-.21 1.22-.37.4-.16.77-.36 1.13-.6.35-.24.68-.51.98-.81.3-.3.57-.63.81-.98.24-.36.44-.73.6-1.13.16-.39.29-.8.37-1.22.08-.42.13-.84.13-1.26 0-.43-.05-.85-.13-1.27a6.37 6.37 0 00-.37-1.22c-.16-.4-.36-.77-.6-1.13-.24-.35-.51-.68-.81-.98-.3-.3-.63-.57-.98-.81-.36-.24-.73-.44-1.13-.6A6.37 6.37 0 0062.5 56a6.37 6.37 0 00-2.49.49c-.4.16-.77.36-1.13.6-.35.24-.68.51-.98.81-.3.3-.57.63-.81.98-.24.36-.44.73-.6 1.13A6.37 6.37 0 0056 62.5c0 4.5-3 6.5-3 6.5h9.5z" stroke-width="3"/><path d="M65.05 56.52C67.44 53.28 73.43 46 79 46c0 5.56-7.29 11.55-10.52M67.62 53.33c1.73.96 3.08 2.31 4.05" stroke-width="3" stroke-linecap="round"/></g></svg>