<svg width="60" height="60" fill="none" xmlns="http://www.w3.org/2000/svg"><defs><clipPath id="a"><path fill="#fff" fill-opacity="0" d="M0 0h60v60H0z"/></clipPath></defs><g clip-path="url(#a)"><path d="M5 48.75h50v-37.5H5v37.5z"/><path d="M55 48.75v-37.5H5v37.5h50z" stroke="#FFF" stroke-width="1.5" stroke-linejoin="round"/><path d="M4.57 11.84l-.02.01c-.34-.26-.41-.72-.16-1.05.26-.34.72-.41 1.05-.15l.01.02-.88 1.17zm49.97-1.17l.01-.02c.33-.26.79-.19 1.05.15.25.33.18.79-.15 1.05l-.03-.01-.88-1.17z"/><path d="M5 11.25L30 30l25-18.75" stroke="#FFF" stroke-width="1.5" stroke-linejoin="round" stroke-linecap="round"/><path d="M29.98 10.52l.02-.02a.749.749 0 110 1.5l-.02-.02v-1.46zM5.72 29.98l.03.02c0 .42-.34.75-.75.75-.42 0-.75-.33-.75-.75l.02-.02h1.45z"/><path d="M30 11.25H5V30" stroke="#FFF" stroke-width="1.5" stroke-linejoin="round" stroke-linecap="round"/><path d="M55.73 29.98l.02.02c0 .42-.34.75-.75.75-.42 0-.75-.33-.75-.75l.02-.02h1.46zm-25.71-18L30 12c-.42 0-.75-.33-.75-.75s.33-.75.75-.75l.02.02v1.46z"/><path d="M55 30V11.25H30" stroke="#FFF" stroke-width="1.5" stroke-linejoin="round" stroke-linecap="round"/></g></svg>