<svg width="32" height="32" fill="none" xmlns="http://www.w3.org/2000/svg"><defs><clipPath id="a"><path fill="#fff" fill-opacity="0" d="M0 0h32v32H0z"/></clipPath></defs><g clip-path="url(#a)"><path d="M9.33 4C6.38 4 4 6.38 4 9.33v13.33A5.33 5.33 0 009.33 28h13.33c2.95 0 5.34-2.39 5.34-5.34V9.33A5.33 5.33 0 0022.66 4H9.33z" stroke="#FFF" stroke-linejoin="round"/><path d="M21.33 16c0-2.95-2.39-5.34-5.33-5.34-2.95 0-5.34 2.39-5.34 5.34a5.335 5.335 0 0010.67 0z" stroke="#FFF" stroke-linejoin="round"/><path d="M23.33 10a1.336 1.336 0 000-2.67c-.74 0-1.33.6-1.33 1.33 0 .74.59 1.34 1.33 1.34z" fill="#FFF"/></g></svg>