<svg width="32" height="32" fill="none" xmlns="http://www.w3.org/2000/svg"><defs><clipPath id="a"><path transform="translate(-.034 -.155)" fill="#fff" fill-opacity="0" d="M0 0h32v32H0z"/></clipPath></defs><g clip-path="url(#a)"><path d="M9.29 3.84c-2.94 0-5.33 2.39-5.33 5.33v13.34c0 2.94 2.39 5.33 5.33 5.33h13.34c2.94 0 5.33-2.39 5.33-5.33V9.17c0-2.94-2.39-5.33-5.33-5.33H9.29z" stroke="#FFF" stroke-width="2" stroke-linejoin="round"/><path d="M21.29 15.84c0-2.95-2.38-5.33-5.33-5.33-2.94 0-5.33 2.38-5.33 5.33s2.39 5.33 5.33 5.33c2.95 0 5.33-2.38 5.33-5.33z" stroke="#FFF" stroke-width="2" stroke-linejoin="round"/><path d="M23.29 9.84c.74 0 1.34-.6 1.34-1.33 0-.74-.6-1.34-1.34-1.34a1.336 1.336 0 000 2.67z" fill="gray"/></g></svg>