<svg width="32" height="32" fill="none" xmlns="http://www.w3.org/2000/svg"><defs><clipPath id="a"><path transform="translate(-.69 -.953)" fill="#fff" fill-opacity="0" d="M0 0h32v32H0z"/></clipPath></defs><g clip-path="url(#a)"><path d="M26.92 3.91s2.59-1.01 2.37 1.45c-.07 1.01-.72 4.54-1.22 8.37l-1.73 11.32S26.2 26.71 24.9 27c-1.29.29-3.23-1.01-3.59-1.3-.29-.21-5.4-3.46-7.2-5.05-.5-.43-1.08-1.3.07-2.31l7.56-7.21c.86-.87 1.73-2.89-1.87-.43L9.79 17.55s-1.15.72-3.31.07l-4.67-1.44S.08 15.1 3.03 14.01c7.2-3.39 16.05-6.85 23.89-10.1z" fill="#FFF"/></g></svg>