<svg width="32" height="32" fill="none" xmlns="http://www.w3.org/2000/svg"><defs><clipPath id="a"><path fill="#fff" fill-opacity="0" d="M0 0h32v32H0z"/></clipPath></defs><g clip-path="url(#a)" stroke="#FFF" stroke-linejoin="round"><path d="M9.07 12.21c.05-.25.13-.5.23-.75.1-.24.22-.47.37-.69.15-.22.31-.42.5-.6.18-.19.38-.35.6-.5.22-.15.45-.27.69-.37.25-.1.5-.18.75-.23.26-.05.52-.07.79-.07l2 4-1.54 2.3c.3.73.73 1.38 1.29 1.94s1.21.99 1.94 1.3L19 17l4 2c0 .26-.03.52-.08.78-.05.25-.13.5-.23.75-.1.24-.22.47-.37.69-.14.22-.31.42-.5.6-.18.19-.38.35-.6.5-.22.15-.45.27-.69.37-.25.1-.5.18-.75.23-.26.05-.52.08-.78.08-.33 0-.66-.02-.99-.05-.32-.04-.64-.08-.97-.15-.32-.06-.63-.14-.95-.24-.31-.09-.62-.2-.92-.33-.3-.12-.6-.26-.89-.42-.29-.15-.57-.32-.84-.5s-.54-.38-.79-.58c-.25-.21-.49-.43-.73-.66-.23-.24-.45-.48-.66-.73-.2-.25-.4-.52-.58-.79-.18-.27-.35-.55-.5-.84-.16-.29-.3-.59-.42-.89-.13-.3-.24-.61-.33-.92-.1-.32-.18-.63-.24-.95-.07-.33-.11-.65-.15-.97-.03-.33-.04-.66-.04-.98 0-.27.02-.53.07-.79z"/><path d="M11.27 27.03c.45.19.9.35 1.36.49.46.13.93.24 1.4.32.48.07.95.12 1.43.15.48.02.96.01 1.44-.03.48-.03.96-.1 1.43-.19s.93-.22 1.39-.36a12.042 12.042 0 002.61-1.22c.41-.25.8-.53 1.17-.83.38-.3.73-.62 1.07-.97.34-.34.65-.7.94-1.08.3-.38.57-.78.81-1.19.25-.42.47-.84.66-1.28.19-.44.36-.89.5-1.35.14-.46.25-.93.33-1.4a11.613 11.613 0 00.16-2.87c-.03-.48-.09-.96-.18-1.43s-.2-.94-.35-1.4c-.14-.46-.31-.91-.51-1.34-.2-.44-.42-.87-.67-1.28-.25-.41-.53-.8-.82-1.18a12.335 12.335 0 00-2.03-2.03c-.38-.3-.78-.57-1.19-.82-.41-.25-.83-.47-1.27-.67-.44-.2-.89-.37-1.35-.52-.45-.14-.92-.26-1.39-.35a11.643 11.643 0 00-2.87-.18 11.374 11.374 0 00-2.83.5c-.46.14-.91.3-1.35.5-.44.19-.87.41-1.28.65-.41.25-.81.52-1.19.81-.38.29-.75.61-1.09.95-.34.33-.67.69-.97 1.06-.3.38-.57.77-.83 1.18-.25.41-.48.83-.68 1.26-.2.44-.38.89-.53 1.34-.15.46-.27.92-.36 1.4-.1.47-.16.94-.2 1.42-.03.48-.04.96-.02 1.44s.07.96.15 1.43c.08.48.18.95.32 1.41.13.46.3.91.49 1.35.19.44.4.87.64 1.29l-1.56 4.67c-.06.18-.07.36-.03.54.05.19.14.35.27.48.13.14.29.22.48.27.18.04.36.03.54-.03l4.68-1.56c.41.24.84.46 1.28.65z"/></g></svg>