<svg width="434" height="143" fill="none" xmlns="http://www.w3.org/2000/svg"><path d="M125.28 45c0-1.29.13-3.52.58-6.08l5.83-32.97c.7-4.03.06-5.5.06-5.5s.95-.58 3.33-.58c4.92 0 5.5 1.86 4.73 6.34l-6.28 35.58c-.62 3.78.46 5.64 2.77 5.64 2.54 0 5.44-2.12 7.09-5.58.83 0 1.41.52 1.22 1.68-.64 3.39-5.62 9.47-11.84 9.47-4.41 0-7.49-2.88-7.49-8zm22.47 0c0-1.29.13-3.52.58-6.08l5.83-32.97c.7-4.03.06-5.5.06-5.5s.96-.58 3.33-.58c4.92 0 5.5 1.86 4.73 6.34L156 41.79c-.62 3.78.46 5.64 2.77 5.64 2.55 0 5.44-2.12 7.09-5.58.83 0 1.41.52 1.22 1.68-.64 3.39-5.62 9.47-11.84 9.47-4.41 0-7.49-2.88-7.49-8zm212.52-1.47c-.64 3.39-5.24 9.47-11.45 9.47-4.22 0-7.24-2.63-7.49-7.3-2.69 4.73-6.14 7.3-9.86 7.3-5.25 0-9.4-3.52-9.4-11.02 0-14.27 8.32-20.98 15.81-20.98 3 0 5.19 1.09 6.65 2.81l3.07-17.86c.7-4.03.08-5.5.08-5.5s.95-.58 3.32-.58c4.93 0 5.5 1.86 4.74 6.34l-6.16 35.58c-.64 3.85.45 5.64 2.77 5.64 2.17 0 5.04-2.12 6.72-5.58.82 0 1.4.52 1.2 1.68zM42.01 45.39c4.15 0 6.96-2.69 10.35-14.47l4.04-13.96c2.31-8.12 2.43-11.32 2.43-11.32S60.3 5 62.49 5c3.89 0 5.23 1.28 5.44 5.95l1.34 31.42 14.02-29.25c2.04-4.22 2.5-6.02 2.75-7.48 0 0 1.01-.64 3.64-.64 4.73 0 5.64 2.1 4.81 6.96l-5.25 30.16c-.64 3.7.7 5.31 2.87 5.31 3.15 0 5.83-3.78 6.72-5.58.97 0 1.35.65 1.22 1.68-.58 3.9-5.7 9.47-11.58 9.47-4.54 0-7.68-3.08-7.68-7.94 0-2.94.32-5.5.89-8.89l3.26-18.63-13.37 28.22c-1.66 3.52-2.17 6.28-2.17 6.28s-1.47.96-4.04.96c-3.45 0-4.15-2.5-4.35-6.47l-1.29-29.25-6.32 23.5C50.96 49.85 47.83 53 43.6 53c-2.88 0-4.74-1.99-4.74-4.93 0-2.25.91-3.2.91-3.2s.7.52 2.24.52zm208.81-13c0 9.86 5.25 15.29 13.83 15.29 6.96 0 12.54-2.62 15.48-5.83 1.03 0 1.22.58 1.09 1.41-.76 3.33-8.7 9.74-19.97 9.74-10.95 0-19.32-7.49-19.32-19.91 0-16.83 10.5-28.09 23.73-28.09 8 0 12.24 5.18 12.24 10.87 0 6.02-3.85 9.28-7.82 9.28-3.14 0-4.15-2.17-4.15-2.17s4.79-1.92 4.79-9.09c0-3.39-2.11-5.38-5.25-5.38-7.36 0-14.65 10.69-14.65 23.88zM111.9 15.23c-2.3 0-3.85-1.59-3.85-3.83 0-2.62 2.05-4.61 4.49-4.61 2.44 0 3.97 1.72 3.97 4.03 0 2.24-1.8 4.41-4.61 4.41zM103.19 45c0-1.29.13-3.52.58-6.08l2.05-11.85c.7-4.09.06-5.5.06-5.5s.97-.57 3.33-.57c4.92 0 5.5 1.85 4.73 6.34l-2.5 14.45c-.62 3.85.46 5.64 2.77 5.64 2.17 0 5.05-2.12 6.72-5.58.83 0 1.4.52 1.2 1.68-.62 3.39-5.23 9.47-11.45 9.47-4.41 0-7.49-2.88-7.49-8zm97.38-1.47c-.58 2.81-6.72 9.47-16.52 9.47-8.39 0-14.46-5.19-14.46-13.83 0-11.33 8.64-18.17 17.15-18.17 6.53 0 9.16 3.39 9.16 6.65 0 5.83-6.74 9.66-17.99 11.78.38 4.8 3.71 8.5 9.14 8.5 6.86 0 10.75-3.39 12.49-6.08.83 0 1.28.52 1.03 1.68zM210.56 21c4.92 0 5.5 2.04 4.73 6.34l-.51 2.81c4.09-6.92 8.39-9.15 11.26-9.15 3.14 0 5.13 1.73 5.13 4.98 0 3.59-2.19 6.16-5.31 6.16-1.68 0-2.89-.39-2.89-.39s.84-1.47.84-3.21c0-.89-.39-1.4-1.34-1.4-1.04 0-2.44.82-4.55 3.78-2.44 3.39-4.55 7.36-6.08 16.37-.64 3.78 0 5.13 0 5.13s-.97.58-3.33.58c-4.94 0-5.51-1.86-4.73-6.35l3.39-19.58c.7-4.03.06-5.5.06-5.5s.95-.57 3.33-.57zm72.52 19.78c0-11.6 6.78-19.78 17.74-19.78 7.48 0 11.76 4.92 11.76 12.21 0 1.41-.12 2.75-.31 4.04 4.8-.71 7.75-4.99 7.75-4.99.83 0 1.26.64 1.14 1.59-.38 2.25-4.41 5.71-9.53 6.35-2.17 7.61-8.06 12.8-16.77 12.8-6.78 0-11.78-4.29-11.78-12.22zm110.68 2.75c-.58 2.81-6.72 9.47-16.51 9.47-8.39 0-14.47-5.19-14.47-13.83 0-11.33 8.64-18.17 17.15-18.17 6.54 0 9.16 3.39 9.16 6.65 0 5.83-6.73 9.66-17.98 11.78.37 4.8 3.7 8.5 9.14 8.5 6.86 0 10.75-3.39 12.48-6.08.83 0 1.28.52 1.03 1.68zm-90.26-5.07c-1.61-1.21-2.43-2.93-2.43-5.04 0-2.19 1.15-3.91 3.26-4.36-.31-3.21-1.8-4.92-4.15-4.92-3.21 0-6.54 3.26-8.33 12.79-.32 1.66-.58 4.99-.58 6.6 0 4.03 1.55 6.26 4.23 6.26 3.46 0 6.33-3.64 8-11.33zM189.04 26.43c0-1.34-.89-2.23-2.24-2.23-3.65 0-8.12 4.22-8.82 12.22 7.79-1.86 11.06-5.77 11.06-9.99zm193.19 0c0-1.34-.89-2.23-2.23-2.23-3.66 0-8.13 4.22-8.83 12.22 7.8-1.86 11.06-5.77 11.06-9.99zm-51.98 15.69c0 3.58 1.43 5.31 3.78 5.31 4.55 0 7.94-9.61 9.16-16l.58-3.01c-.58-1.28-1.8-3.07-4.24-3.07-4.34 0-9.28 6.46-9.28 16.77zM13.22 112.08c0 14.79 7.87 22.95 20.74 22.95 10.45 0 18.82-3.94 23.23-8.75 1.55 0 1.83.87 1.64 2.11-1.15 5-13.06 14.61-29.95 14.61-16.43 0-29-11.23-29-29.86C-.12 87.89 15.63 71 35.49 71c12 0 18.35 7.78 18.35 16.31 0 9.02-5.77 13.92-11.72 13.92-4.71 0-6.24-3.26-6.24-3.26s7.2-2.88 7.2-13.64c0-5.08-3.17-8.06-7.88-8.06-11.04 0-21.98 16.03-21.98 35.81zm247.82-25.73c-3.45 0-5.77-2.39-5.77-5.75 0-3.93 3.07-6.91 6.73-6.91 3.65 0 5.95 2.58 5.95 6.05 0 3.35-2.69 6.61-6.91 6.61zm-48.59 11.43c0-1.64 1.15-2.78 3.26-2.78h4.52l.96-5.18c1.15-6.05.1-8.25.1-8.25s1.43-.87 4.99-.87c7.38 0 8.34 2.76 7.1 9.49l-.87 4.81h9.52s.66.77.66 2.01c0 1.64-1.15 2.79-3.26 2.79h-7.78l-4.6 26.39c-.96 5.27.96 8.46 5.46 8.46 5.49 0 9.43-4.33 11.54-8.37 1.24 0 2.1.87 1.71 2.51-1.43 5.86-9.21 14.21-18.33 14.21-7.1 0-12.68-5-12.68-12.68 0-2.21.21-5.37 1.08-10.27l3.54-20.25h-6.24s-.68-.77-.68-2.02zM69.78 95c7.38 0 8.25 3.07 7.1 9.51l-.77 4.22C82.25 98.35 88.69 95 93.01 95c4.71 0 7.68 2.6 7.68 7.47 0 5.39-3.28 9.24-7.96 9.24-2.51 0-4.34-.59-4.34-.59s1.27-2.2 1.27-4.8c0-1.34-.59-2.11-2.02-2.11-1.55 0-3.66 1.24-6.82 5.67-3.66 5.08-6.82 11.04-9.12 24.56-.96 5.67 0 7.69 0 7.69s-1.45.87-4.99.87c-7.41 0-8.27-2.79-7.1-9.52l5.08-29.37c1.06-6.04.1-8.25.1-8.25s1.43-.86 4.99-.86zm83.34 33.79c-.87 4.22-10.08 14.21-24.77 14.21-12.59 0-21.71-7.79-21.71-20.75 0-16.99 12.97-27.25 25.74-27.25 9.79 0 13.73 5.08 13.73 9.98 0 8.74-10.1 14.48-26.97 17.67.56 7.2 5.55 12.75 13.71 12.75 10.29 0 16.12-5.08 18.72-9.12 1.25 0 1.93.78 1.55 2.51zm49.35-32.83s-1.26 1.73-2.22 6.91l-4.13 23.32c-1.05 5.77.68 8.46 4.13 8.46 3.28 0 7.59-3.19 10.1-8.37 1.24 0 2.11.78 1.8 2.51-.96 5.09-7.87 14.21-17.18 14.21-6.33 0-10.76-3.94-11.22-10.86-3.94 7.11-9.22 10.86-14.7 10.86-7.88 0-14.11-5.28-14.11-16.53 0-21.4 12.49-31.47 23.72-31.47 4.8 0 8.16 1.92 10.36 4.71 1.55-3.47 3.94-4.71 8.65-4.71 3.26 0 4.8.96 4.8.96zM247.98 131c0-1.93.19-5.28.87-9.12l3.07-17.77c1.05-6.14.09-8.25.09-8.25s1.46-.86 5-.86c7.38 0 8.25 2.78 7.1 9.51l-3.75 21.68c-.94 5.77.68 8.46 4.15 8.46 3.25 0 7.56-3.19 10.07-8.37 1.24 0 2.11.78 1.81 2.51-.94 5.09-7.85 14.21-17.18 14.21-6.61 0-11.23-4.32-11.23-12zm29.67-6.33c0-17.39 10.17-29.67 26.6-29.67 11.23 0 17.65 7.38 17.65 18.32 0 2.11-.18 4.13-.47 6.05 7.2-1.05 11.63-7.48 11.63-7.48 1.24 0 1.9.96 1.71 2.39-.56 3.38-6.61 8.56-14.3 9.52-3.25 11.41-12.09 19.2-25.15 19.2-10.17 0-17.67-6.43-17.67-18.33zm85.84 6.33c0-2.49.87-7.79 1.43-10.95l1.83-10.57c.77-4.59-.19-6.05-2.3-6.05-6.05 0-15.17 14.32-18.14 30.45-1.06 6.04-.1 8.25-.1 8.25s-1.45.87-4.99.87c-7.4 0-8.27-2.79-7.1-9.52l5.09-29.37c1.05-6.04.09-8.25.09-8.25s1.43-.86 4.99-.86c7.39 0 8.25 2.78 7.1 9.51l-.77 4.41c3.75-6.24 11.04-13.92 18.82-13.92 6.05 0 9.89 3.93 9.89 9.89 0 2.11-.4 4.89-.87 7.78l-2.29 13.52c-.87 4.71-.1 8.46 3.94 8.46 4.03 0 7.57-3.37 10.07-8.37 1.25 0 2.11.78 1.81 2.51-.01.08-.03.16-.04.24 1.04-2.01 3.28-3.12 5.73-3.12 3.26 0 4.6 1.34 4.6 1.34s-.47 1.05-.47 2.78c0 4.72 2.48 8.07 7.97 8.16 5.46 0 8.06-2.88 8.06-6.05 0-2.29-1.27-4.21-4.71-6.04l-9.4-5c-4.62-2.48-8.37-5.55-8.37-12 0-7.78 6.73-14.1 20.37-14.1 11.88 0 17.46 6.32 17.46 11.32 0 3.65-2.98 5.76-6.33 5.76-3.28 0-4.62-1.33-4.62-1.33s.5-1.06.5-2.79c0-4.53-2.79-8.16-8.18-8.16-5.28 0-7.85 2.67-7.85 6.05 0 2.79 1.52 4.4 4.68 6.04l8.28 4.32c7 3.65 9.49 7.59 9.49 12.68 0 7.57-6.42 14.11-20.34 14.11-12.31 0-17.49-6.33-17.49-11.33 0-.26.02-.52.05-.77-2.05 5.06-8.5 12.1-16.27 12.1-7.22 0-11.62-4.81-11.62-12zm-55.2-9.8c-2.42-1.83-3.66-4.41-3.66-7.57 0-3.28 1.73-5.86 4.9-6.54-.47-4.81-2.7-7.38-6.24-7.38-4.8 0-9.79 4.89-12.49 19.19-.47 2.49-.87 7.48-.87 9.89 0 6.05 2.32 9.4 6.36 9.4 5.18 0 9.49-5.46 12-16.99zm-172.47-18.05c0-2.01-1.33-3.35-3.35-3.35-5.48 0-12.18 6.33-13.24 18.33 11.69-2.79 16.59-8.65 16.59-14.98zm31.4 23.53c0 5.37 2.13 7.97 5.67 7.97 6.82 0 11.91-14.41 13.74-24l.87-4.52c-.87-1.92-2.7-4.6-6.36-4.6-6.51 0-13.92 9.68-13.92 25.15z" fill="#FFF" fill-rule="evenodd"/></svg>