<svg width="32.000000" height="32.000000" viewBox="0 0 32 32" fill="none" xmlns="http://www.w3.org/2000/svg" xmlns:xlink="http://www.w3.org/1999/xlink">
	<desc>
			Created with Pixso.
	</desc>
	<defs>
		<clipPath id="clip35_6">
			<rect id="ArrowCircleUp" width="32.000000" height="32.000000" fill="white" fill-opacity="0"/>
		</clipPath>
	</defs>
	<g clip-path="url(#clip35_6)">
		<rect id="rect" width="32.000000" height="32.000000" fill="#000000" fill-opacity="0"/>
		<circle id="circle" cx="16.000000" cy="16.000000" r="12.000000" fill="#000000" fill-opacity="0"/>
		<circle id="circle" cx="16.000000" cy="16.000000" r="12.000000" stroke="#470091" stroke-opacity="1.000000" stroke-width="2.000000" stroke-linejoin="round"/>
		<path id="polyline" d="M12.7 15.67L12.7 15.7C12.31 16.1 11.68 16.1 11.29 15.7C10.89 15.31 10.89 14.68 11.29 14.29L11.32 14.29L12.7 15.67ZM20.67 14.29L20.7 14.29C21.1 14.68 21.1 15.31 20.7 15.7C20.31 16.1 19.68 16.1 19.29 15.7L19.29 15.67L20.67 14.29Z" fill="#000000" fill-opacity="0" fill-rule="nonzero"/>
		<path id="polyline" d="M12 15L16 11L20 15" stroke="#470091" stroke-opacity="1.000000" stroke-width="2.000000" stroke-linejoin="round" stroke-linecap="round"/>
		<path id="line" d="M16.98 20.98L17 21C17 21.56 16.56 22 16 22C15.44 22 15 21.56 15 21L15.02 20.98L16.98 20.98ZM15.02 11.02L15 11C15 10.44 15.44 10 16 10C16.56 10 17 10.44 17 11L16.98 11.02L15.02 11.02Z" fill="#000000" fill-opacity="0" fill-rule="nonzero"/>
		<path id="line" d="M16 21L16 11" stroke="#470091" stroke-opacity="1.000000" stroke-width="2.000000" stroke-linejoin="round" stroke-linecap="round"/>
	</g>
</svg>
