<svg width="140.000000" height="124.000000" viewBox="0 0 140 124" fill="none" xmlns="http://www.w3.org/2000/svg" xmlns:xlink="http://www.w3.org/1999/xlink">
	<desc>
			Created with Pixso.
	</desc>
	<defs>
		<clipPath id="clip14_39">
			<rect id="UsersFour" width="40.333332" height="44.000000" transform="translate(52.000000 36.000000)" fill="white" fill-opacity="0"/>
		</clipPath>
		<clipPath id="clip14_71">
			<rect id="corporate" width="139.499985" height="124.000000" fill="white" fill-opacity="0"/>
		</clipPath>
	</defs>
	<g clip-path="url(#clip14_71)">
		<rect id="rect" x="122.062500" y="92.999992" rx="2.000000" width="104.624992" height="69.749992" transform="rotate(180 122.062500 92.999992)" stroke="#000000" stroke-opacity="1.000000" stroke-width="2.000000" stroke-linejoin="round"/>
		<path id="line" d="M87.18 108.5L52.31 " stroke="#000000" stroke-opacity="1.000000" stroke-width="2.000000" stroke-linejoin="round" stroke-linecap="round"/>
		<g clip-path="url(#clip14_39)">
			<ellipse id="circle" cx="64.604187" cy="64.875000" rx="5.041667" ry="5.500000" stroke="#000000" stroke-opacity="1.000000" stroke-width="2.000000" stroke-linejoin="round"/>
			<ellipse id="circle" cx="64.604187" cy="47.000000" rx="5.041667" ry="5.500000" stroke="#000000" stroke-opacity="1.000000" stroke-width="2.000000" stroke-linejoin="round"/>
			<ellipse id="circle" cx="79.729187" cy="64.875000" rx="5.041667" ry="5.500000" stroke="#000000" stroke-opacity="1.000000" stroke-width="2.000000" stroke-linejoin="round"/>
			<path id="path" d="M57.04 74.5C57.26 74.18 57.49 73.87 57.74 73.58C58 73.29 58.26 73.02 58.54 72.77C58.82 72.51 59.12 72.27 59.42 72.05C59.73 71.84 60.04 71.64 60.37 71.46C60.7 71.28 61.03 71.12 61.38 70.99C61.72 70.85 62.07 70.74 62.43 70.65C62.78 70.55 63.14 70.49 63.51 70.44C63.87 70.39 64.23 70.37 64.6 70.37C64.96 70.37 65.33 70.39 65.69 70.44C66.06 70.49 66.42 70.55 66.77 70.65C67.13 70.74 67.48 70.85 67.82 70.99C68.16 71.12 68.5 71.28 68.83 71.46C69.15 71.64 69.47 71.84 69.78 72.05C70.08 72.27 70.38 72.51 70.66 72.77C70.94 73.02 71.2 73.29 71.46 73.58C71.71 73.87 71.94 74.18 72.16 74.5C72.38 74.18 72.62 73.87 72.87 73.58C73.12 73.29 73.39 73.02 73.67 72.77C73.95 72.51 74.24 72.27 74.55 72.05C74.85 71.84 75.17 71.64 75.5 71.46C75.82 71.28 76.16 71.12 76.5 70.99C76.85 70.85 77.2 70.74 77.55 70.65C77.91 70.55 78.27 70.49 78.63 70.44C78.99 70.39 79.36 70.37 79.72 70.37C80.09 70.37 80.45 70.39 80.82 70.44C81.18 70.49 81.54 70.55 81.9 70.65C82.25 70.74 82.6 70.85 82.95 70.99C83.29 71.12 83.62 71.28 83.95 71.46C84.28 71.64 84.6 71.84 84.9 72.05C85.21 72.27 85.5 72.51 85.78 72.77C86.06 73.02 86.33 73.29 86.58 73.58C86.83 73.87 87.07 74.18 87.29 " stroke="#000000" stroke-opacity="1.000000" stroke-width="2.000000" stroke-linejoin="round" stroke-linecap="round"/>
			<ellipse id="circle" cx="79.729187" cy="47.000000" rx="5.041667" ry="5.500000" stroke="#000000" stroke-opacity="1.000000" stroke-width="2.000000" stroke-linejoin="round"/>
			<path id="path" d="M57.04 56.62C57.26 56.3 57.49 56 57.74 55.71C58 55.42 58.26 55.15 58.54 54.89C58.82 54.63 59.12 54.4 59.42 54.18C59.73 53.96 60.04 53.76 60.37 53.58C60.7 53.41 61.03 53.25 61.38 53.11C61.72 52.98 62.07 52.86 62.43 52.77C62.78 52.68 63.14 52.61 63.51 52.56C63.87 52.52 64.23 52.5 64.6 52.5C64.96 52.5 65.33 52.52 65.69 52.56C66.06 52.61 66.42 52.68 66.77 52.77C67.13 52.86 67.48 52.98 67.82 53.11C68.16 53.25 68.5 53.41 68.83 53.58C69.15 53.76 69.47 53.96 69.78 54.18C70.08 54.4 70.38 54.63 70.66 54.89C70.94 55.15 71.2 55.42 71.46 55.71C71.71 56 71.94 56.3 72.16 56.62C72.38 56.3 72.62 56 72.87 55.71C73.12 55.42 73.39 55.15 73.67 54.89C73.95 54.63 74.24 54.4 74.55 54.18C74.85 53.96 75.17 53.76 75.5 53.58C75.82 53.41 76.16 53.25 76.5 53.11C76.85 52.98 77.2 52.86 77.55 52.77C77.91 52.68 78.27 52.61 78.63 52.56C78.99 52.52 79.36 52.5 79.72 52.5C80.09 52.5 80.45 52.52 80.82 52.56C81.18 52.61 81.54 52.68 81.9 52.77C82.25 52.86 82.6 52.98 82.95 53.11C83.29 53.25 83.62 53.41 83.95 53.58C84.28 53.76 84.6 53.96 84.9 54.18C85.21 54.4 85.5 54.63 85.78 54.89C86.06 55.15 86.33 55.42 86.58 55.71C86.83 56 87.07 56.3 87.29 " stroke="#000000" stroke-opacity="1.000000" stroke-width="2.000000" stroke-linejoin="round" stroke-linecap="round"/>
		</g>
	</g>
</svg>
