<svg width="134.000000" height="124.000000" viewBox="0 0 134 124" fill="none" xmlns="http://www.w3.org/2000/svg" xmlns:xlink="http://www.w3.org/1999/xlink">
	<desc>
			Created with Pixso.
	</desc>
	<defs>
		<clipPath id="clip14_63">
			<rect id="design" width="134.000000" height="124.000000" fill="white" fill-opacity="0"/>
		</clipPath>
	</defs>
	<g clip-path="url(#clip14_63)">
		<rect id="rect" x="117.250000" y="93.000000" rx="2.000000" width="100.500000" height="69.750000" transform="rotate(180 117.250000 93.000000)" stroke="#FFFFFF" stroke-opacity="1.000000" stroke-width="4.000000" stroke-linejoin="round"/>
		<path id="line" d="M83.75 108.5L50.25 " stroke="#FFFFFF" stroke-opacity="1.000000" stroke-width="4.000000" stroke-linejoin="round" stroke-linecap="round"/>
		<path id="path" d="M62.5 69C62.92 69 63.34 68.95 63.76 68.87C64.18 68.79 64.59 68.66 64.98 68.5C65.38 68.34 65.75 68.14 66.11 67.9C66.46 67.66 66.79 67.39 67.09 67.09C67.39 66.79 67.66 66.46 67.9 66.11C68.14 65.75 68.34 65.38 68.5 64.98C68.66 64.59 68.79 64.18 68.87 63.76C68.95 63.34 69 62.92 69 62.5C69 62.07 68.95 61.65 68.87 61.23C68.79 60.81 68.66 60.4 68.5 60.01C68.34 59.61 68.14 59.24 67.9 58.88C67.66 58.53 67.39 58.2 67.09 57.9C66.79 57.6 66.46 57.33 66.11 57.09C65.75 56.85 65.38 56.65 64.98 56.49C64.59 56.33 64.18 56.2 63.76 56.12C63.34 56.04 62.92 56 62.5 56C62.07 56 61.65 56.04 61.23 56.12C60.81 56.2 60.4 56.33 60.01 56.49C59.61 56.65 59.24 56.85 58.88 57.09C58.53 57.33 58.2 57.6 57.9 57.9C57.6 58.2 57.33 58.53 57.09 58.88C56.85 59.24 56.65 59.61 56.49 60.01C56.33 60.4 56.2 60.81 56.12 61.23C56.04 61.65 56 62.07 56 62.5C56 67 53 69 53 69L62.5 69Z" stroke="#FFFFFF" stroke-opacity="1.000000" stroke-width="3.000000" stroke-linejoin="round"/>
		<path id="path" d="M65.05 56.52C67.44 53.28 73.43 46 79 46C79 51.56 71.71 57.55 68.48 " stroke="#FFFFFF" stroke-opacity="1.000000" stroke-width="3.000000" stroke-linejoin="round" stroke-linecap="round"/>
		<path id="path" d="M67.62 53.33C69.35 54.29 70.7 55.64 71.67 " stroke="#FFFFFF" stroke-opacity="1.000000" stroke-width="3.000000" stroke-linejoin="round" stroke-linecap="round"/>
	</g>
</svg>
