<svg width="60.000000" height="60.000000" viewBox="0 0 60 60" fill="none" xmlns="http://www.w3.org/2000/svg" xmlns:xlink="http://www.w3.org/1999/xlink">
	<desc>
			Created with Pixso.
	</desc>
	<defs>
		<clipPath id="clip49_1">
			<rect id="Почта" width="60.000000" height="60.000000" fill="white" fill-opacity="0"/>
		</clipPath>
	</defs>
	<g clip-path="url(#clip49_1)">
		<path id="path" d="M5 48.75L55 48.75L55 30L55 11.25L30 11.25L5 11.25L5 30L5 48.75Z" fill="#000000" fill-opacity="0" fill-rule="nonzero"/>
		<path id="path" d="M55 48.75L55 30L55 11.25L30 11.25L5 11.25L5 30L5 48.75L55 48.75Z" stroke="#FFFFFF" stroke-opacity="1.000000" stroke-width="1.500000" stroke-linejoin="round"/>
		<path id="path" d="M4.57 11.84L4.55 11.85C4.21 11.59 4.14 11.13 4.39 10.8C4.65 10.46 5.11 10.39 5.44 10.65L5.45 10.67L4.57 11.84ZM54.54 10.67L54.55 10.65C54.88 10.39 55.34 10.46 55.6 10.8C55.85 11.13 55.78 11.59 55.45 11.85L55.42 11.84L54.54 10.67Z" fill="#000000" fill-opacity="0" fill-rule="nonzero"/>
		<path id="path" d="M5 11.25L30 30L55 11.25" stroke="#FFFFFF" stroke-opacity="1.000000" stroke-width="1.500000" stroke-linejoin="round" stroke-linecap="round"/>
		<path id="path" d="M29.98 10.52L30 10.5C30.41 10.5 30.75 10.83 30.75 11.25C30.75 11.67 30.41 12 30 12L29.98 11.98L29.98 10.52ZM5.72 29.98L5.75 30C5.75 30.42 5.41 30.75 5 30.75C4.58 30.75 4.25 30.42 4.25 30L4.27 29.98L5.72 29.98Z" fill="#000000" fill-opacity="0" fill-rule="nonzero"/>
		<path id="path" d="M30 11.25L5 11.25L5 30" stroke="#FFFFFF" stroke-opacity="1.000000" stroke-width="1.500000" stroke-linejoin="round" stroke-linecap="round"/>
		<path id="path" d="M55.73 29.98L55.75 30C55.75 30.42 55.41 30.75 55 30.75C54.58 30.75 54.25 30.42 54.25 30L54.27 29.98L55.73 29.98ZM30.02 11.98L30 12C29.58 12 29.25 11.67 29.25 11.25C29.25 10.83 29.58 10.5 30 10.5L30.02 10.52L30.02 11.98Z" fill="#000000" fill-opacity="0" fill-rule="nonzero"/>
		<path id="path" d="M55 30L55 11.25L30 11.25" stroke="#FFFFFF" stroke-opacity="1.000000" stroke-width="1.500000" stroke-linejoin="round" stroke-linecap="round"/>
	</g>
</svg>
