<svg width="32.000000" height="32.000000" viewBox="0 0 32 32" fill="none" xmlns="http://www.w3.org/2000/svg" xmlns:xlink="http://www.w3.org/1999/xlink">
	<desc>
			Created with Pixso.
	</desc>
	<defs>
		<clipPath id="clip6_14">
			<rect id="instagram" width="32.000000" height="32.000000" transform="translate(-0.033813 -0.155396)" fill="white" fill-opacity="0"/>
		</clipPath>
	</defs>
	<g clip-path="url(#clip6_14)">
		<path id="path" d="M9.29 3.84C6.35 3.84 3.96 6.23 3.96 9.17L3.96 22.51C3.96 25.45 6.35 27.84 9.29 27.84L22.63 27.84C25.57 27.84 27.96 25.45 27.96 22.51L27.96 9.17C27.96 6.23 25.57 3.84 22.63 3.84L9.29 3.84Z" stroke="#FFFFFF" stroke-opacity="1.000000" stroke-width="2.000000" stroke-linejoin="round"/>
		<path id="path" d="M21.29 15.84C21.29 12.89 18.91 10.51 15.96 10.51C13.02 10.51 10.63 12.89 10.63 15.84C10.63 18.79 13.02 21.17 15.96 21.17C18.91 21.17 21.29 18.79 21.29 15.84Z" stroke="#FFFFFF" stroke-opacity="1.000000" stroke-width="2.000000" stroke-linejoin="round"/>
		<path id="path" d="M23.29 9.84C24.03 9.84 24.63 9.24 24.63 8.51C24.63 7.77 24.03 7.17 23.29 7.17C22.56 7.17 21.96 7.77 21.96 8.51C21.96 9.24 22.56 9.84 23.29 9.84Z" fill="#808080" fill-opacity="1.000000" fill-rule="nonzero"/>
	</g>
</svg>
