<svg width="32.000000" height="32.000000" viewBox="0 0 32 32" fill="none" xmlns="http://www.w3.org/2000/svg" xmlns:xlink="http://www.w3.org/1999/xlink">
	<desc>
			Created with Pixso.
	</desc>
	<defs>
		<clipPath id="clip6_14">
			<rect id="instagram" width="32.000000" height="32.000000" fill="white" fill-opacity="0"/>
		</clipPath>
	</defs>
	<g clip-path="url(#clip6_14)">
		<path id="path" d="M9.33 4C6.38 4 4 6.38 4 9.33L4 22.66C4 25.61 6.38 28 9.33 28L22.66 28C25.61 28 28 25.61 28 22.66L28 9.33C28 6.38 25.61 4 22.66 4L9.33 4Z" stroke="#FFFFFF" stroke-opacity="1.000000" stroke-width="1.000000" stroke-linejoin="round"/>
		<path id="path" d="M21.33 16C21.33 13.05 18.94 10.66 16 10.66C13.05 10.66 10.66 13.05 10.66 16C10.66 18.94 13.05 21.33 16 21.33C18.94 21.33 21.33 18.94 21.33 16Z" stroke="#FFFFFF" stroke-opacity="1.000000" stroke-width="1.000000" stroke-linejoin="round"/>
		<path id="path" d="M23.33 10C24.06 10 24.66 9.4 24.66 8.66C24.66 7.93 24.06 7.33 23.33 7.33C22.59 7.33 22 7.93 22 8.66C22 9.4 22.59 10 23.33 10Z" fill="#FFFFFF" fill-opacity="1.000000" fill-rule="nonzero"/>
	</g>
</svg>
