<svg width="49.000000" height="50.000000" viewBox="0 0 49 50" fill="none" xmlns="http://www.w3.org/2000/svg" xmlns:xlink="http://www.w3.org/1999/xlink">
	<desc>
			Created with Pixso.
	</desc>
	<defs>
		<clipPath id="clip38_3">
			<rect id="next" width="49.999996" height="48.648647" transform="translate(-0.324387 49.324280) rotate(-90.000000)" fill="white" fill-opacity="0"/>
		</clipPath>
	</defs>
	<g clip-path="url(#clip38_3)">
		<rect id="rect" x="-0.324387" y="49.324280" width="49.999996" height="48.648647" transform="rotate(-90 -0.324387 49.324280)" fill="#000000" fill-opacity="0"/>
		<path id="polyline" d="M16.51 10.09L16.48 10.09C15.7 9.29 15.72 8.04 16.52 7.26C17.32 6.48 18.57 6.5 19.35 7.3L19.35 7.33L16.51 10.09ZM19.35 41.31L19.35 41.34C18.57 42.14 17.32 42.16 16.52 41.38C15.72 40.6 15.7 39.35 16.48 38.55L16.51 38.55L19.35 41.31Z" fill="#000000" fill-opacity="0" fill-rule="nonzero"/>
		<path id="polyline" d="M17.91 8.69L33.12 24.32L17.91 39.94" stroke="#FFFFFF" stroke-opacity="1.000000" stroke-width="4.000000" stroke-linejoin="round"/>
	</g>
</svg>
