<svg width="19.000000" height="7.000000" viewBox="0 0 19 7" fill="none" xmlns="http://www.w3.org/2000/svg" xmlns:xlink="http://www.w3.org/1999/xlink">
	<desc>
			Created with Pixso.
	</desc>
	<defs/>
	<path id="path" d="M0.02 6.73L0 6.75C-0.42 6.75 -0.75 6.42 -0.75 6C-0.75 5.57 -0.42 5.25 0 5.25L0.02 5.26L0.02 6.73ZM17.98 5.26L18 5.25C18.42 5.25 18.75 5.57 18.75 6C18.75 6.42 18.42 6.75 18 6.75L17.98 6.73L17.98 5.26Z" fill="#000000" fill-opacity="0" fill-rule="nonzero"/>
	<path id="path" d="M0 6L18 6" stroke="#FFFFFF" stroke-opacity="1.000000" stroke-width="1.500000" stroke-linejoin="round" stroke-linecap="round"/>
	<path id="path" d="M11.49 0.53L11.46 0.53C11.17 0.23 11.17 -0.24 11.46 -0.54C11.76 -0.83 12.23 -0.83 12.53 -0.54L12.53 -0.51L11.49 0.53ZM18.5 5.46L18.53 5.46C18.82 5.76 18.82 6.23 18.53 6.53C18.23 6.82 17.76 6.82 17.46 6.53L17.46 6.5L18.5 5.46Z" fill="#000000" fill-opacity="0" fill-rule="nonzero"/>
	<path id="path" d="M12 0L18 6" stroke="#FFFFFF" stroke-opacity="1.000000" stroke-width="1.500000" stroke-linejoin="round" stroke-linecap="round"/>
</svg>
