<svg width="19.000000" height="7.000000" viewBox="0 0 19 7" fill="none" xmlns="http://www.w3.org/2000/svg" xmlns:xlink="http://www.w3.org/1999/xlink">
	<desc>
			Created with Pixso.
	</desc>
	<defs/>
	<path id="path" d="M0.02 0.73L0 0.75C-0.42 0.75 -0.75 0.42 -0.75 0C-0.75 -0.43 -0.42 -0.75 0 -0.75L0.02 -0.74L0.02 0.73ZM17.98 -0.74L18 -0.75C18.42 -0.75 18.75 -0.43 18.75 0C18.75 0.42 18.42 0.75 18 0.75L17.98 0.73L17.98 -0.74Z" fill="#000000" fill-opacity="0" fill-rule="nonzero"/>
	<path id="path" d="M0 0L18 0" stroke="#FFFFFF" stroke-opacity="1.000000" stroke-width="1.500000" stroke-linejoin="round" stroke-linecap="round"/>
	<path id="path" d="M-0.51 0.53L-0.54 0.53C-0.83 0.23 -0.83 -0.24 -0.54 -0.54C-0.24 -0.83 0.23 -0.83 0.53 -0.54L0.53 -0.51L-0.51 0.53ZM6.5 5.46L6.53 5.46C6.82 5.76 6.82 6.23 6.53 6.53C6.23 6.82 5.76 6.82 5.46 6.53L5.46 6.5L6.5 5.46Z" fill="#000000" fill-opacity="0" fill-rule="nonzero"/>
	<path id="path" d="M0 0L6 6" stroke="#FFFFFF" stroke-opacity="1.000000" stroke-width="1.500000" stroke-linejoin="round" stroke-linecap="round"/>
</svg>
