<svg width="32.000000" height="32.000000" viewBox="0 0 32 32" fill="none" xmlns="http://www.w3.org/2000/svg" xmlns:xlink="http://www.w3.org/1999/xlink">
	<desc>
			Created with Pixso.
	</desc>
	<defs>
		<clipPath id="clip6_18">
			<rect id="Telegram" width="32.000000" height="32.000000" transform="translate(-0.689209 -0.952759)" fill="white" fill-opacity="0"/>
		</clipPath>
	</defs>
	<g clip-path="url(#clip6_18)">
		<path id="path" d="M26.92 3.91C26.92 3.91 29.51 2.9 29.29 5.36C29.22 6.37 28.57 9.9 28.07 13.73L26.34 25.05C26.34 25.05 26.2 26.71 24.9 27C23.61 27.29 21.67 25.99 21.31 25.7C21.02 25.49 15.91 22.24 14.11 20.65C13.61 20.22 13.03 19.35 14.18 18.34L21.74 11.13C22.6 10.26 23.47 8.24 19.87 10.7L9.79 17.55C9.79 17.55 8.64 18.27 6.48 17.62L1.81 16.18C1.81 16.18 0.08 15.1 3.03 14.01C10.23 10.62 19.08 7.16 26.92 3.91Z" fill="#FFFFFF" fill-opacity="1.000000" fill-rule="nonzero"/>
	</g>
</svg>
