<svg width="32.000000" height="32.000000" viewBox="0 0 32 32" fill="none" xmlns="http://www.w3.org/2000/svg" xmlns:xlink="http://www.w3.org/1999/xlink">
	<desc>
			Created with Pixso.
	</desc>
	<defs>
		<clipPath id="clip17_1">
			<rect id="WhatsappLogo" width="32.000000" height="32.000000" fill="white" fill-opacity="0"/>
		</clipPath>
	</defs>
	<g clip-path="url(#clip17_1)">
		<path id="path" d="M9.07 12.21C9.12 11.96 9.2 11.71 9.3 11.46C9.4 11.22 9.52 10.99 9.67 10.77C9.82 10.55 9.98 10.35 10.17 10.17C10.35 9.98 10.55 9.82 10.77 9.67C10.99 9.52 11.22 9.4 11.46 9.3C11.71 9.2 11.96 9.12 12.21 9.07C12.47 9.02 12.73 9 13 9L15 13L13.46 15.3C13.76 16.03 14.19 16.68 14.75 17.24C15.31 17.8 15.96 18.23 16.69 18.54L19 17L23 19C23 19.26 22.97 19.52 22.92 19.78C22.87 20.03 22.79 20.28 22.69 20.53C22.59 20.77 22.47 21 22.32 21.22C22.18 21.44 22.01 21.64 21.82 21.82C21.64 22.01 21.44 22.17 21.22 22.32C21 22.47 20.77 22.59 20.53 22.69C20.28 22.79 20.03 22.87 19.78 22.92C19.52 22.97 19.26 23 19 23C18.67 23 18.34 22.98 18.01 22.95C17.69 22.91 17.37 22.87 17.04 22.8C16.72 22.74 16.41 22.66 16.09 22.56C15.78 22.47 15.47 22.36 15.17 22.23C14.87 22.11 14.57 21.97 14.28 21.81C13.99 21.66 13.71 21.49 13.44 21.31C13.17 21.13 12.9 20.93 12.65 20.73C12.4 20.52 12.16 20.3 11.92 20.07C11.69 19.83 11.47 19.59 11.26 19.34C11.06 19.09 10.86 18.82 10.68 18.55C10.5 18.28 10.33 18 10.18 17.71C10.02 17.42 9.88 17.12 9.76 16.82C9.63 16.52 9.52 16.21 9.43 15.9C9.33 15.58 9.25 15.27 9.19 14.95C9.12 14.62 9.08 14.3 9.04 13.98C9.01 13.65 9 13.32 9 13C9 12.73 9.02 12.47 9.07 12.21Z" stroke="#FFFFFF" stroke-opacity="1.000000" stroke-width="1.000000" stroke-linejoin="round"/>
		<path id="path" d="M11.27 27.03C11.72 27.22 12.17 27.38 12.63 27.52C13.09 27.65 13.56 27.76 14.03 27.84C14.51 27.91 14.98 27.96 15.46 27.99C15.94 28.01 16.42 28 16.9 27.96C17.38 27.93 17.86 27.86 18.33 27.77C18.8 27.68 19.26 27.55 19.72 27.41C20.18 27.26 20.63 27.08 21.06 26.88C21.5 26.67 21.92 26.45 22.33 26.19C22.74 25.94 23.13 25.66 23.5 25.36C23.88 25.06 24.23 24.74 24.57 24.39C24.91 24.05 25.22 23.69 25.51 23.31C25.81 22.93 26.08 22.53 26.32 22.12C26.57 21.7 26.79 21.28 26.98 20.84C27.17 20.4 27.34 19.95 27.48 19.49C27.62 19.03 27.73 18.56 27.81 18.09C27.9 17.61 27.95 17.14 27.98 16.66C28.01 16.18 28 15.7 27.97 15.22C27.94 14.74 27.88 14.26 27.79 13.79C27.7 13.32 27.59 12.85 27.44 12.39C27.3 11.93 27.13 11.48 26.93 11.05C26.73 10.61 26.51 10.18 26.26 9.77C26.01 9.36 25.73 8.97 25.44 8.59C25.14 8.21 24.82 7.85 24.48 7.51C24.14 7.17 23.78 6.85 23.41 6.56C23.03 6.26 22.63 5.99 22.22 5.74C21.81 5.49 21.39 5.27 20.95 5.07C20.51 4.87 20.06 4.7 19.6 4.55C19.15 4.41 18.68 4.29 18.21 4.2C17.73 4.11 17.26 4.05 16.78 4.02C16.3 3.99 15.82 3.99 15.34 4.02C14.86 4.04 14.38 4.1 13.91 4.18C13.44 4.26 12.97 4.38 12.51 4.52C12.05 4.66 11.6 4.82 11.16 5.02C10.72 5.21 10.29 5.43 9.88 5.67C9.47 5.92 9.07 6.19 8.69 6.48C8.31 6.77 7.94 7.09 7.6 7.43C7.26 7.76 6.93 8.12 6.63 8.49C6.33 8.87 6.06 9.26 5.8 9.67C5.55 10.08 5.32 10.5 5.12 10.93C4.92 11.37 4.74 11.82 4.59 12.27C4.44 12.73 4.32 13.19 4.23 13.67C4.13 14.14 4.07 14.61 4.03 15.09C4 15.57 3.99 16.05 4.01 16.53C4.03 17.01 4.08 17.49 4.16 17.96C4.24 18.44 4.34 18.91 4.48 19.37C4.61 19.83 4.78 20.28 4.97 20.72C5.16 21.16 5.37 21.59 5.61 22.01L4.05 26.68C3.99 26.86 3.98 27.04 4.02 27.22C4.07 27.41 4.16 27.57 4.29 27.7C4.42 27.84 4.58 27.92 4.77 27.97C4.95 28.01 5.13 28 5.31 27.94L9.99 26.38C10.4 26.62 10.83 26.84 11.27 27.03Z" stroke="#FFFFFF" stroke-opacity="1.000000" stroke-width="1.000000" stroke-linejoin="round"/>
	</g>
</svg>
