<?xml version="1.0" encoding="utf-8"?>
<!-- Generator: Adobe Illustrator 24.3.0, SVG Export Plug-In . SVG Version: 6.00 Build 0)  -->
<svg version="1.1" id="Слой_1" xmlns="http://www.w3.org/2000/svg" xmlns:xlink="http://www.w3.org/1999/xlink" x="0px" y="0px"
	 viewBox="0 0 100 100" enable-background="new 0 0 100 100" xml:space="preserve">
<g id="Слой_2_1_">
	<g id="Слой_1-2">
		<rect x="-5.4" y="-6.414" fill="#FFFFFF" fill-opacity="0" width="110" height="113"/>
		<polygon fill="#265AA6" points="77.42,91.662 49.6,99.358 21.78,91.662 15.361,20.217 83.841,20.217 		"/>
		<polygon fill="#449DD7" points="49.6,26.004 49.6,93.221 49.663,93.238 72.175,87.01 77.373,26.004 		"/>
		<polygon fill="#FFFFFF" points="33.812,9.72 33.812,5.467 39.852,5.467 39.852,0.814 29.282,0.814 29.282,13.967 39.852,13.967 
			39.852,9.72 		"/>
		<path fill="#FFFFFF" d="M50.715,5.467h4.222V0.814H44.367v4.654c1.413,1.454,2.153,2.148,4.197,4.249h-4.197v4.251h10.569V9.72
			L50.715,5.467z"/>
		<path fill="#FFFFFF" d="M65.696,5.467h4.224V0.814H59.344v4.654c1.413,1.454,2.153,2.148,4.197,4.249L59.344,9.72v4.247h10.572
			V9.72L65.696,5.467z"/>
		<polygon fill="#FFFFFF" points="49.575,43.869 29.664,52.387 30.324,60.822 49.575,52.366 70.053,43.372 70.902,34.744 		"/>
		
			<linearGradient id="SVGID_1_" gradientUnits="userSpaceOnUse" x1="39.6198" y1="41.1783" x2="39.6198" y2="58.131" gradientTransform="matrix(1 0 0 -1 0 102)">
			<stop  offset="0.39" style="stop-color:#DADADA;stop-opacity:0"/>
			<stop  offset="1" style="stop-color:#DADADA"/>
		</linearGradient>
		<polygon fill="url(#SVGID_1_)" points="29.664,52.387 30.324,60.822 49.575,52.366 49.575,43.869 		"/>
		
			<linearGradient id="SVGID_2_" gradientUnits="userSpaceOnUse" x1="60.2389" y1="49.6336" x2="60.2389" y2="67.2557" gradientTransform="matrix(1 0 0 -1 0 102)">
			<stop  offset="0.39" style="stop-color:#DADADA;stop-opacity:0"/>
			<stop  offset="1" style="stop-color:#DADADA"/>
		</linearGradient>
		<polygon fill="url(#SVGID_2_)" points="70.902,34.744 49.575,43.869 49.575,52.366 70.053,43.372 		"/>
		
			<linearGradient id="SVGID_3_" gradientUnits="userSpaceOnUse" x1="29.6947" y1="33.6177" x2="69.3297" y2="33.6177" gradientTransform="matrix(1 0 0 -1 0 102)">
			<stop  offset="0" style="stop-color:#EEEDED"/>
			<stop  offset="1" style="stop-color:#FFFFFF"/>
		</linearGradient>
		<polygon fill="url(#SVGID_3_)" points="29.695,52.387 30.354,60.822 59.894,60.918 59.232,72.164 49.512,74.976 40.168,72.55 
			39.602,65.572 30.92,65.572 32.054,79.046 49.606,84.377 67.065,79.142 69.33,52.387 		"/>
		<g opacity="0.05">
			<polygon fill="#1D1D1B" points="49.575,52.387 29.664,52.387 30.324,60.822 49.575,60.885 			"/>
			<polygon fill="#1D1D1B" points="49.575,74.948 49.482,74.976 40.138,72.55 39.572,65.572 30.889,65.572 32.023,79.046 
				49.575,84.377 			"/>
		</g>
		
			<linearGradient id="SVGID_4_" gradientUnits="userSpaceOnUse" x1="27.8708" y1="62.942" x2="70.9023" y2="62.942" gradientTransform="matrix(1 0 0 -1 0 102)">
			<stop  offset="0" style="stop-color:#EEEDED"/>
			<stop  offset="1" style="stop-color:#FFFFFF"/>
		</linearGradient>
		<polygon fill="url(#SVGID_4_)" points="27.871,34.744 70.902,34.744 70.053,43.372 28.908,43.372 		"/>
		<polygon opacity="0.05" fill="#1D1D1B" enable-background="new    " points="49.575,34.744 27.871,34.744 28.908,43.372 
			49.575,43.372 		"/>
	</g>
</g>
</svg>
