<?xml version="1.0" encoding="utf-8"?>
<!-- Generator: Adobe Illustrator 24.3.0, SVG Export Plug-In . SVG Version: 6.00 Build 0)  -->
<svg version="1.1" id="Слой_1" xmlns="http://www.w3.org/2000/svg" xmlns:xlink="http://www.w3.org/1999/xlink" x="0px" y="0px"
	 viewBox="0 0 100 100" enable-background="new 0 0 100 100" xml:space="preserve">
<polygon fill="#E44D26" points="20.97,92.054 14.6,19.738 84.6,19.738 78.223,92.042 49.557,100.086 "/>
<polygon fill="#F16529" points="49.6,93.938 72.763,87.438 78.213,25.651 49.6,25.651 "/>
<polygon fill="#EBEBEB" points="49.6,52.472 38.004,52.472 37.203,43.39 49.6,43.39 49.6,34.52 49.57,34.52 27.626,34.52 
	27.836,36.9 29.989,61.341 49.6,61.341 "/>
<polygon fill="#EBEBEB" points="49.6,75.506 49.562,75.517 39.802,72.849 39.178,65.776 34.436,65.776 30.381,65.776 31.609,79.702 
	49.56,84.745 49.6,84.734 "/>
<path fill="#FFFFFF" d="M21.113,0.086h4.454v4.453h4.074V0.086h4.454v13.485H29.64V9.055h-4.074v4.516h-4.453L21.113,0.086
	L21.113,0.086z"/>
<path fill="#FFFFFF" d="M39.95,4.558h-3.92V0.086h12.297v4.472h-3.922v9.013H39.95L39.95,4.558L39.95,4.558z"/>
<path fill="#FFFFFF" d="M50.278,0.086h4.644l2.856,4.738l2.853-4.738h4.645v13.485h-4.435V6.887l-3.064,4.795h-0.077l-3.066-4.795
	v6.684h-4.357L50.278,0.086L50.278,0.086z"/>
<path fill="#FFFFFF" d="M67.493,0.086h4.455v9.028h6.263v4.457H67.493V0.086L67.493,0.086z"/>
<polygon fill="#FFFFFF" points="49.57,52.472 49.57,61.341 60.361,61.341 59.343,72.844 49.57,75.514 49.57,84.741 67.535,79.702 
	67.667,78.203 69.726,54.854 69.94,52.472 67.578,52.472 "/>
<polygon fill="#FFFFFF" points="49.57,34.52 49.57,40.029 49.57,43.368 49.57,43.39 70.709,43.39 70.709,43.39 70.737,43.39 
	70.913,41.396 71.312,36.9 71.522,34.52 "/>
</svg>
