<?xml version="1.0" encoding="utf-8"?>
<!-- Generator: Adobe Illustrator 24.3.0, SVG Export Plug-In . SVG Version: 6.00 Build 0)  -->
<svg version="1.1" id="Слой_1" xmlns="http://www.w3.org/2000/svg" xmlns:xlink="http://www.w3.org/1999/xlink" x="0px" y="0px"
	 viewBox="0 0 200 100" enable-background="new 0 0 200 100" xml:space="preserve">
<path fill="#6BA0AB" d="M103.473,17.349h-6.954c-0.386,0-0.769,0.55-0.851,1.219l-2.469,20.271L90.73,59.11
	c-0.082,0.669-0.465,1.217-0.85,1.217h-4.922c-4.87,0-4.306-5.979-3.309-14.167c0.01-0.083,0.02-0.164,0.03-0.248l0.109-1.031
	c0.007-0.067,0.014-0.134,0.021-0.194l0.222-2.102l0.238-2.253c0.073-0.679,0.182-1.672,0.254-2.296l1.122-9.733l1.123-9.733
	c0.077-0.67-0.176-1.223-0.561-1.223h-7.138c-0.386,0-0.768,0.552-0.847,1.222l-1.535,12.924l-1.534,12.922
	c-0.001,0.006-0.002,0.014-0.002,0.019l-0.143,1.201c-1.768,14.325-1.299,27.984,8.308,28.411c0.157,0.008,0.279,0.011,0.279,0.011
	h15.08c0.386,0,0.768-0.55,0.848-1.222l3.253-27.131l3.252-27.134C104.108,17.899,103.858,17.349,103.473,17.349L103.473,17.349z"/>
<path fill="#6BA0AB" d="M28.996,17.206H21.36c-0.387,0-0.772,0.547-0.858,1.215l-0.724,5.673l-0.724,5.674
	c-0.085,0.667,0.161,1.215,0.547,1.215h7.696c0.386,0,0.769-0.548,0.852-1.217l0.7-5.672l0.7-5.669v-0.001
	C29.631,17.753,29.383,17.206,28.996,17.206L28.996,17.206z"/>
<path fill="#6BA0AB" d="M26.782,34.859h-7.697c-0.386,0-0.771,0.547-0.857,1.217l-1.081,8.498l-1.08,8.499
	c-0.085,0.667-0.221,1.767-0.301,2.436l-1.039,8.674l-1.038,8.678c-0.081,0.667-0.247,1.75-0.37,2.4c0,0-1.437,7.594-3.855,7.506
	c-0.103-0.003-0.203-0.006-0.302-0.01c-1.171-0.041-2.092-0.07-2.092-0.07H7.069c-0.385-0.011-0.773,0.526-0.863,1.189l-0.798,5.955
	L4.61,95.782c-0.089,0.666,0.152,1.213,0.536,1.224c1.371,0.031,4.441,0.095,6.3,0.095c6.038,0,9.221-5.942,11.261-23.025
	l2.388-19.613l2.24-18.391C27.417,35.406,27.167,34.859,26.782,34.859L26.782,34.859z"/>
<path fill="#6BA0AB" d="M168.499,30.262l-0.319-2.339l-0.316-2.396l-0.159-1.213c-0.625-4.311-2.458-6.799-6.443-6.799l-6.204-0.012
	l-5.712-0.012h-6.431c-0.386,0-0.768,0.547-0.848,1.219l0,0l-0.283,2.385l-0.334,2.815l-0.093,0.788l-2.895,24.069l-2.748,22.847
	c-0.082,0.671-0.11,1.494-0.063,1.83c0.047,0.337,0.788,0.611,1.176,0.611h5.799c0.387,0,0.876-0.125,1.085-0.276
	c0.21-0.152,0.521-1.497,0.598-2.169l1.032-9.052l1.032-9.048c0-0.004,0.001-0.012,0.002-0.014l0.137-1.208l1.25-10.395l1.104-9.184
	c0.082-0.667,0.462-1.212,0.847-1.214l18.25-0.016C168.344,31.475,168.588,30.932,168.499,30.262L168.499,30.262z"/>
<path fill="#6BA0AB" d="M191.992,9.113c-0.387,0.005-1.018,0.01-1.404,0.01h-5.842c-0.386,0-0.881,0.463-1.097,1.029l-12.916,33.585
	c-0.219,0.568-0.47,0.483-0.553-0.184l-0.95-7.4c-0.088-0.668-0.472-1.215-0.858-1.215h-8.304c-0.387,0-0.616,0.538-0.51,1.198
	l3.721,23.134c0.104,0.659,0.114,1.745,0.018,2.404l-1.623,11.199c-0.097,0.665,0.141,1.207,0.527,1.207h8.207
	c0.387,0,0.781-0.543,0.877-1.207l1.622-11.199c0.096-0.663,0.365-1.655,0.599-2.202l20.97-49.394
	c0.233-0.547,0.106-0.993-0.279-0.988L191.992,9.113L191.992,9.113z"/>
<path fill="#6BA0AB" d="M126.024,38.087l-0.001-0.013c-0.049,0.743-0.437,1.29-0.823,1.29h-10.525c-0.364,0-0.552-0.44-0.496-0.981
	c0.003-0.016,0.005-0.029,0.008-0.043c0,0-0.004,0.001-0.008,0.006c0.004-0.022,0.004-0.041,0.007-0.062
	c0,0,0.022-0.132,0.047-0.317c1.006-4.745,3.053-7.859,6.904-7.859C125.472,30.105,126.317,33.863,126.024,38.087L126.024,38.087z
	 M122.935,16.521c-13.513,0-16.715,14.558-18.511,29.251c-1.797,14.977-1.643,28.979,12.341,28.979h0.496
	c0.044-0.001,0.089-0.001,0.134-0.001h0.904c0.056-0.003,0.107-0.003,0.163-0.003c0.14,0,0.28-0.001,0.423-0.001h0.099
	c0.552-0.001,1.115-0.007,1.677-0.01h0.028c3.692-0.025,7.397-0.074,8.896-0.096c0.384-0.013,0.761-0.559,0.839-1.224l0.566-4.911
	l0.11-0.955l0.675-5.857c0.078-0.671-0.175-1.222-0.561-1.222h-12.57c-5.002,0-6.486-2.358-5.939-9.291h20.095l-0.002,0.004
	c0.005,0,0.009-0.004,0.013-0.004c0.32-0.013,0.615-0.401,0.732-0.924c0.022-0.099,0.04-0.205,0.048-0.312l-0.003,0.004
	C136.574,29.973,135.717,16.521,122.935,16.521L122.935,16.521z"/>
<path fill="#6BA0AB" d="M59.067,38.01l-0.19,1.197c0,0.004,0,0.004,0,0.004l-1.517,9.544l-1.517,9.543
	c-0.105,0.659-0.506,1.199-0.893,1.199h-8.031c-6.092,0-7.575-8.458-6.092-20.932c1.483-12.758,4.392-20.691,10.387-21.492
	C59.407,15.975,61.046,26.204,59.067,38.01L59.067,38.01z M64.575,58.762c0,0,3.787-16.317,4.646-25.745
	c1.178-12.617-2.382-30.916-16.13-30.916c-13.671,0-19.606,17.47-21.872,36.463c-2.265,19.13,0.703,35.905,14.295,35.77
	l10.722-0.072l10.022-0.065c0.386-0.006,0.78-0.548,0.879-1.211l1.746-11.819c0.097-0.663-0.139-1.209-0.524-1.211l-1.673-0.016
	l-1.673-0.014c-0.328-0.008-0.516-0.384-0.476-0.883c0.007-0.092,0.019-0.184,0.041-0.278h-0.003L64.575,58.762L64.575,58.762z"/>
</svg>
