<svg width="19" height="7" fill="none" xmlns="http://www.w3.org/2000/svg"><path d="M.02 6.73L0 6.75c-.42 0-.75-.33-.75-.75 0-.43.33-.75.75-.75l.02.01v1.47zm17.96-1.47l.02-.01c.42 0 .75.32.75.75 0 .42-.33.75-.75.75l-.02-.02V5.26z"/><path d="M0 6h18" stroke="#FFF" stroke-width="1.5" stroke-linejoin="round" stroke-linecap="round"/><path d="M11.49.53h-.03a.767.767 0 010-1.07c.3-.29.77-.29 1.07 0v.03L11.49.53zm7.01 4.93h.03c.29.3.29.77 0 1.07-.3.29-.77.29-1.07 0V6.5l1.04-1.04z"/><path d="M12 0l6 6" stroke="#FFF" stroke-width="1.5" stroke-linejoin="round" stroke-linecap="round"/></svg>