<svg width="19" height="7" fill="none" xmlns="http://www.w3.org/2000/svg"><path d="M.02.73L0 .75C-.42.75-.75.42-.75 0c0-.43.33-.75.75-.75l.02.01V.73zM17.98-.74L18-.75c.42 0 .75.32.75.75 0 .42-.33.75-.75.75l-.02-.02V-.74z"/><path d="M0 0h18" stroke="#FFF" stroke-width="1.5" stroke-linejoin="round" stroke-linecap="round"/><path d="M-.51.53h-.03a.767.767 0 010-1.07c.3-.29.77-.29 1.07 0v.03L-.51.53zM6.5 5.46h.03c.29.3.29.77 0 1.07-.3.29-.77.29-1.07 0V6.5L6.5 5.46z"/><path d="M0 0l6 6" stroke="#FFF" stroke-width="1.5" stroke-linejoin="round" stroke-linecap="round"/></svg>