<svg xmlns="http://www.w3.org/2000/svg" viewBox="0 0 100 100"><path fill="none" d="M-5.4-6.414h110v113h-110z"/><path fill="#265AA6" d="M77.42 91.662L49.6 99.358l-27.82-7.696-6.419-71.445h68.48z"/><path fill="#449DD7" d="M49.6 26.004v67.217l.063.017 22.512-6.228 5.198-61.006z"/><path fill="#FFF" d="M33.812 9.72V5.467h6.04V.814h-10.57v13.153h10.57V9.72zm16.903-4.253h4.222V.814h-10.57v4.654c1.413 1.454 2.153 2.148 4.197 4.249h-4.197v4.251h10.569V9.72l-4.221-4.253zm14.981 0h4.224V.814H59.344v4.654c1.413 1.454 2.153 2.148 4.197 4.249l-4.197.003v4.247h10.572V9.72l-4.22-4.253zM49.575 43.869l-19.911 8.518.66 8.435 19.251-8.456 20.478-8.994.849-8.628z"/><linearGradient id="a" gradientUnits="userSpaceOnUse" x1="39.62" y1="41.178" x2="39.62" y2="58.131" gradientTransform="matrix(1 0 0 -1 0 102)"><stop offset=".39" stop-color="#dadada" stop-opacity="0"/><stop offset="1" stop-color="#dadada"/></linearGradient><path fill="url(#a)" d="M29.664 52.387l.66 8.435 19.251-8.456v-8.497z"/><linearGradient id="b" gradientUnits="userSpaceOnUse" x1="60.239" y1="49.634" x2="60.239" y2="67.256" gradientTransform="matrix(1 0 0 -1 0 102)"><stop offset=".39" stop-color="#dadada" stop-opacity="0"/><stop offset="1" stop-color="#dadada"/></linearGradient><path fill="url(#b)" d="M70.902 34.744l-21.327 9.125v8.497l20.478-8.994z"/><linearGradient id="c" gradientUnits="userSpaceOnUse" x1="29.695" y1="33.618" x2="69.33" y2="33.618" gradientTransform="matrix(1 0 0 -1 0 102)"><stop offset="0" stop-color="#eeeded"/><stop offset="1" stop-color="#fff"/></linearGradient><path fill="url(#c)" d="M29.695 52.387l.659 8.435 29.54.096-.662 11.246-9.72 2.812-9.344-2.426-.566-6.978H30.92l1.134 13.474 17.552 5.331 17.459-5.235 2.265-26.755z"/><path d="M49.575 52.387H29.664l.66 8.435 19.251.063zm0 22.561l-.093.028-9.344-2.426-.566-6.978h-8.683l1.134 13.474 17.552 5.331z" opacity=".05" fill="#1D1D1B"/><linearGradient id="d" gradientUnits="userSpaceOnUse" x1="27.871" y1="62.942" x2="70.902" y2="62.942" gradientTransform="matrix(1 0 0 -1 0 102)"><stop offset="0" stop-color="#eeeded"/><stop offset="1" stop-color="#fff"/></linearGradient><path fill="url(#d)" d="M27.871 34.744h43.031l-.849 8.628H28.908z"/><path opacity=".05" fill="#1D1D1B" d="M49.575 34.744H27.871l1.037 8.628h20.667z"/></svg>