<svg xmlns="http://www.w3.org/2000/svg" viewBox="0 0 100 100"><path fill="#E44D26" d="M20.97 92.054L14.6 19.738h70l-6.377 72.304-28.666 8.044z"/><path fill="#F16529" d="M49.6 93.938l23.163-6.5 5.45-61.787H49.6z"/><path fill="#EBEBEB" d="M49.6 52.472H38.004l-.801-9.082H49.6v-8.87H27.626l.21 2.38 2.153 24.441H49.6zm0 23.034l-.038.011-9.76-2.668-.624-7.073h-8.797l1.228 13.926 17.951 5.043.04-.011z"/><path fill="#FFF" d="M21.113.086h4.454v4.453h4.074V.086h4.454v13.485H29.64V9.055h-4.074v4.516h-4.453V.086zM39.95 4.558h-3.92V.086h12.297v4.472h-3.922v9.013H39.95V4.558zM50.278.086h4.644l2.856 4.738L60.631.086h4.645v13.485h-4.435V6.887l-3.064 4.795H57.7l-3.066-4.795v6.684h-4.357L50.278.086zm17.215 0h4.455v9.028h6.263v4.457H67.493V.086zM49.57 52.472v8.869h10.791l-1.018 11.503-9.773 2.67v9.227l17.965-5.039.132-1.499 2.059-23.349.214-2.382h-2.362zm0-17.952v8.87h21.167l.176-1.994.399-4.496.21-2.38z"/></svg>