<svg xmlns="http://www.w3.org/2000/svg" viewBox="0 0 200 100"><path fill="#6BA0AB" d="M103.473 17.349h-6.954c-.386 0-.769.55-.851 1.219l-2.469 20.271L90.73 59.11c-.082.669-.465 1.217-.85 1.217h-4.922c-4.87 0-4.306-5.979-3.309-14.167l.03-.248.109-1.031.021-.194.222-2.102.238-2.253c.073-.679.182-1.672.254-2.296l1.122-9.733 1.123-9.733c.077-.67-.176-1.223-.561-1.223h-7.138c-.386 0-.768.552-.847 1.222l-1.535 12.924-1.534 12.922a.137.137 0 00-.002.019l-.143 1.201c-1.768 14.325-1.299 27.984 8.308 28.411.157.008.279.011.279.011h15.08c.386 0 .768-.55.848-1.222l3.253-27.131 3.252-27.134c.08-.671-.17-1.221-.555-1.221zm-74.477-.143H21.36c-.387 0-.772.547-.858 1.215l-.724 5.673-.724 5.674c-.085.667.161 1.215.547 1.215h7.696c.386 0 .769-.548.852-1.217l.7-5.672.7-5.669v-.001c.082-.671-.166-1.218-.553-1.218zm-2.214 17.653h-7.697c-.386 0-.771.547-.857 1.217l-1.081 8.498-1.08 8.499c-.085.667-.221 1.767-.301 2.436l-1.039 8.674-1.038 8.678a44.58 44.58 0 01-.37 2.4s-1.437 7.594-3.855 7.506a662.324 662.324 0 00-2.394-.08h-.001c-.385-.011-.773.526-.863 1.189l-.798 5.955-.798 5.951c-.089.666.152 1.213.536 1.224 1.371.031 4.441.095 6.3.095 6.038 0 9.221-5.942 11.261-23.025l2.388-19.613 2.24-18.391c.082-.666-.168-1.213-.553-1.213zm141.717-4.597l-.319-2.339-.316-2.396-.159-1.213c-.625-4.311-2.458-6.799-6.443-6.799l-6.204-.012-5.712-.012h-6.431c-.386 0-.768.547-.848 1.219l-.283 2.385-.334 2.815-.093.788-2.895 24.069-2.748 22.847c-.082.671-.11 1.494-.063 1.83.047.337.788.611 1.176.611h5.799c.387 0 .876-.125 1.085-.276.21-.152.521-1.497.598-2.169l1.032-9.052 1.032-9.048.002-.014.137-1.208 1.25-10.395 1.104-9.184c.082-.667.462-1.212.847-1.214l18.25-.016c.381-.004.625-.547.536-1.217z"/><path fill="#6BA0AB" d="M191.992 9.113c-.387.005-1.018.01-1.404.01h-5.842c-.386 0-.881.463-1.097 1.029l-12.916 33.585c-.219.568-.47.483-.553-.184l-.95-7.4c-.088-.668-.472-1.215-.858-1.215h-8.304c-.387 0-.616.538-.51 1.198l3.721 23.134c.104.659.114 1.745.018 2.404l-1.623 11.199c-.097.665.141 1.207.527 1.207h8.207c.387 0 .781-.543.877-1.207l1.622-11.199c.096-.663.365-1.655.599-2.202l20.97-49.394c.233-.547.106-.993-.279-.988l-2.205.023zm-65.968 28.974l-.001-.013c-.049.743-.437 1.29-.823 1.29h-10.525c-.364 0-.552-.44-.496-.981l.008-.043s-.004.001-.008.006c.004-.022.004-.041.007-.062 0 0 .022-.132.047-.317 1.006-4.745 3.053-7.859 6.904-7.859 4.335-.003 5.18 3.755 4.887 7.979zm-3.089-21.566c-13.513 0-16.715 14.558-18.511 29.251-1.797 14.977-1.643 28.979 12.341 28.979h.496l.134-.001h.904c.056-.003.107-.003.163-.003l.423-.001h.099c.552-.001 1.115-.007 1.677-.01h.028a1233.1 1233.1 0 008.896-.096c.384-.013.761-.559.839-1.224l.566-4.911.11-.955.675-5.857c.078-.671-.175-1.222-.561-1.222h-12.57c-5.002 0-6.486-2.358-5.939-9.291H132.8l-.002.004c.005 0 .009-.004.013-.004.32-.013.615-.401.732-.924.022-.099.04-.205.048-.312l-.003.004c2.986-19.975 2.129-33.427-10.653-33.427zM59.067 38.01l-.19 1.197v.004l-1.517 9.544-1.517 9.543c-.105.659-.506 1.199-.893 1.199h-8.031c-6.092 0-7.575-8.458-6.092-20.932 1.483-12.758 4.392-20.691 10.387-21.492 8.193-1.098 9.832 9.131 7.853 20.937zm5.508 20.752s3.787-16.317 4.646-25.745C70.399 20.4 66.839 2.101 53.091 2.101c-13.671 0-19.606 17.47-21.872 36.463-2.265 19.13.703 35.905 14.295 35.77l10.722-.072 10.022-.065c.386-.006.78-.548.879-1.211l1.746-11.819c.097-.663-.139-1.209-.524-1.211l-1.673-.016-1.673-.014c-.328-.008-.516-.384-.476-.883.007-.092.019-.184.041-.278h-.003v-.003z"/></svg>